<svg version="1.1" id="Layer_1" xmlns="http://www.w3.org/2000/svg" xmlns:xlink="http://www.w3.org/1999/xlink" x="0px" y="0px"
	 width="100%" viewBox="0 0 1280 1024" enable-background="new 0 0 1280 1024" xml:space="preserve">
<path fill="#021427" opacity="1.000000" stroke="none" 
	d="
M897.000000,1025.000000 
	C598.000000,1025.000000 299.500000,1025.000000 1.000000,1025.000000 
	C1.000000,683.666687 1.000000,342.333344 1.000000,1.000000 
	C427.666656,1.000000 854.333313,1.000000 1281.000000,1.000000 
	C1281.000000,342.333344 1281.000000,683.666687 1281.000000,1025.000000 
	C1153.166626,1025.000000 1025.333374,1025.000000 897.000000,1025.000000 
M316.039856,349.855988 
	C315.635193,351.677032 314.923981,353.489197 314.870758,355.320465 
	C313.622284,398.259247 312.405609,441.199066 311.262329,484.140778 
	C308.541473,586.336121 305.852356,688.532349 303.176849,790.728882 
	C302.850281,803.203369 302.685608,815.682007 302.594055,828.739990 
	C303.678802,829.501892 304.737091,830.305054 305.852142,831.019714 
	C337.600189,851.368713 369.336853,871.735474 401.113861,892.039124 
	C417.334412,902.403198 433.628815,912.651733 450.657776,923.194031 
	C451.458740,922.973633 452.273376,922.793640 453.058746,922.527344 
	C616.376648,867.161438 779.692444,811.789185 943.008606,756.418274 
	C955.255005,752.266296 967.504517,748.123108 979.662842,744.006226 
	C979.715698,742.903259 979.789246,742.240906 979.773071,741.580811 
	C978.731445,699.108948 977.682739,656.637207 976.634277,614.165466 
	C974.755188,538.049683 972.877380,461.933868 970.995911,385.818146 
	C970.011963,346.011322 968.996765,306.205231 968.088440,266.396698 
	C968.026794,263.694336 967.492310,262.267578 963.700500,262.776520 
	C932.637207,262.776520 901.573914,262.776520 870.006775,262.776520 
	C870.006775,248.153671 870.006775,234.090958 870.006775,219.496689 
	C841.754944,226.010727 814.101318,232.386856 786.348511,237.734421 
	C786.285522,231.078125 786.418091,224.413239 786.126221,217.766998 
	C784.712463,185.576889 760.915955,160.133011 728.914062,155.849304 
	C715.254089,154.020844 702.086914,155.799850 688.799866,158.378647 
	C683.580872,124.895088 656.114014,101.983116 619.130737,102.460350 
	C564.331848,103.167473 514.833435,154.557922 516.497742,206.758438 
	C517.458313,236.884979 516.594910,267.067657 516.763855,297.223877 
	C516.786255,301.221497 515.827271,303.014923 511.689362,303.958313 
	C481.521088,310.836121 451.407196,317.953339 421.289673,325.052368 
	C386.490448,333.254883 351.705109,341.516235 316.039856,349.855988 
z"/>
<path fill="#BFDCFB" opacity="1.000000" stroke="none" 
	d="
M688.956238,159.162262 
	C702.086914,155.799850 715.254089,154.020844 728.914062,155.849304 
	C760.915955,160.133011 784.712463,185.576889 786.126221,217.766998 
	C786.418091,224.413239 786.285522,231.078125 786.295654,238.627197 
	C786.242798,260.390564 786.242798,281.261169 786.242798,302.487000 
	C788.655579,302.106720 790.295532,301.940643 791.892517,301.582825 
	C820.101013,295.262299 848.299133,288.895264 876.510193,282.586121 
	C905.840515,276.026611 935.182312,269.518158 964.519104,262.987396 
	C967.492310,262.267578 968.026794,263.694336 968.088440,266.396698 
	C968.996765,306.205231 970.011963,346.011322 970.995911,385.818146 
	C972.877380,461.933868 974.755188,538.049683 976.634277,614.165466 
	C977.682739,656.637207 978.731445,699.108948 979.773071,741.580811 
	C979.789246,742.240906 979.715698,742.903259 979.662842,744.006226 
	C967.504517,748.123108 955.255005,752.266296 943.008606,756.418274 
	C779.692444,811.789185 616.376648,867.161438 453.058746,922.527344 
	C452.273376,922.793640 451.458740,922.973633 450.277405,922.641968 
	C448.503967,900.369080 447.122894,878.647400 445.715179,856.927551 
	C443.125458,816.970825 440.520081,777.015137 437.967651,736.619995 
	C436.991974,720.756897 435.954468,705.333679 434.952026,689.908325 
	C433.884827,673.485962 432.871429,657.060120 431.797363,640.638245 
	C430.213562,616.422852 428.570801,592.211365 427.002930,567.994934 
	C425.896576,550.907532 424.905243,533.812683 423.804504,516.724915 
	C422.223022,492.175842 420.610626,467.628754 418.968079,443.083710 
	C418.102539,430.149536 417.021484,417.228546 416.280243,404.287750 
	C415.904602,397.729980 416.067322,391.141357 416.406433,384.476135 
	C460.410217,374.798584 503.995544,365.217590 547.577637,355.621948 
	C568.069275,351.110199 588.547913,346.538513 609.052002,342.083923 
	C611.557312,341.539612 613.380310,341.009827 613.353027,337.825256 
	C613.187866,318.534515 613.152588,299.242645 613.181152,279.497650 
	C613.313782,272.552795 613.461548,266.059174 613.342285,259.570526 
	C612.959351,238.728958 619.263062,219.996414 630.956665,202.925415 
	C641.202820,187.967514 654.642639,176.511902 670.437744,167.169434 
	C676.847656,164.447113 682.901917,161.804688 688.956238,159.162262 
M633.688293,275.885864 
	C633.688293,295.799042 633.688293,315.712219 633.688293,335.926453 
	C635.418152,335.807251 636.563599,335.870728 637.642883,335.633484 
	C679.344360,326.466187 721.030945,317.231049 762.753479,308.160858 
	C765.913208,307.473969 766.730164,306.116608 766.708740,303.134918 
	C766.600098,287.996429 766.692505,272.856628 766.639709,257.717529 
	C766.623535,253.078812 766.370605,248.440918 766.454102,243.008591 
	C766.335327,234.050125 766.850708,225.028168 765.961243,216.146881 
	C764.283813,199.396545 755.866394,186.798111 740.252991,179.838150 
	C723.288086,172.275711 706.340698,174.014450 688.913940,181.022186 
	C682.569702,184.679855 676.225464,188.337524 669.237976,192.160797 
	C641.600708,212.990341 630.067078,240.697968 633.688293,275.885864 
M822.749390,724.906006 
	C835.966309,706.416321 846.338684,686.436523 853.835815,664.993225 
	C862.101685,641.351196 867.469543,617.128845 867.974426,591.051880 
	C868.701233,586.399719 870.030029,581.750549 870.052612,577.094971 
	C870.160217,554.915649 865.956299,533.409912 858.704346,512.519775 
	C847.769958,481.021698 827.556030,456.744110 800.215637,438.065674 
	C774.530151,420.517883 746.325562,415.025330 716.025879,421.027435 
	C688.157898,426.547821 664.589050,440.591248 643.975647,459.743805 
	C612.776001,488.732330 593.279846,524.811035 580.902832,565.097168 
	C570.606323,598.611328 567.271545,632.718933 572.265564,668.127319 
	C579.478027,662.172974 589.809448,658.805908 584.310669,646.240906 
	C587.051270,645.694763 588.956543,645.174683 590.895935,644.952637 
	C599.782104,643.935242 607.779297,641.450378 614.612061,634.965088 
	C621.473755,628.452209 629.121826,622.707642 636.791565,617.130005 
	C640.957581,614.100403 642.734802,610.604431 643.124878,605.576782 
	C643.607544,599.356323 644.946167,593.202271 645.928345,586.933716 
	C652.626831,587.903687 658.731384,588.640198 664.775208,589.717407 
	C668.477295,590.377380 671.389771,589.701660 674.357971,587.192749 
	C681.350403,581.282288 688.481750,575.502869 695.894653,570.136963 
	C699.746155,567.348999 701.423706,564.025024 702.120544,559.487549 
	C703.168518,552.663818 704.831055,545.934570 706.074829,539.925720 
	C721.267334,540.474182 735.684692,540.994690 750.270081,541.521301 
	C750.119751,543.461731 749.972290,545.365112 749.774963,547.911194 
	C737.253601,547.153503 725.335266,546.432312 712.943909,545.682434 
	C712.212891,549.302063 711.434021,553.158569 710.655151,557.015076 
	C711.303467,557.459961 711.951843,557.904785 712.600220,558.349670 
	C713.813843,556.572327 714.892151,554.677673 716.292908,553.062500 
	C717.102905,552.128479 718.469055,551.000122 719.522827,551.059509 
	C729.282837,551.610107 739.029297,552.400391 749.265076,553.156982 
	C748.433105,560.826355 747.615906,568.360168 746.763000,576.223022 
	C739.031738,576.223022 731.622620,576.223022 724.054077,576.223022 
	C723.084045,582.235840 722.167603,587.916382 721.169556,594.103210 
	C729.155151,594.103210 736.734253,594.103210 744.656067,594.103210 
	C744.277893,596.328430 743.985596,598.047913 743.696838,599.747070 
	C735.480530,599.747070 727.868530,599.747070 720.021912,599.747070 
	C719.817688,601.284790 719.636108,602.651428 719.359863,604.730835 
	C727.506409,604.730835 735.125793,604.730835 743.178162,604.730835 
	C742.460815,609.475403 741.850891,613.509644 741.272827,617.333374 
	C733.049561,617.333374 725.302979,617.333374 717.314575,617.333374 
	C715.848755,626.293701 714.384155,635.246460 712.811157,644.862244 
	C720.972656,644.862244 728.562134,644.862244 736.667969,644.862244 
	C734.884949,653.623230 733.238037,661.715393 731.586060,669.832458 
	C723.786438,669.430420 716.402893,669.049805 708.781250,668.656921 
	C707.225830,678.314697 705.790344,687.227966 704.270752,696.663025 
	C711.608826,696.663025 718.191101,696.663025 725.439270,696.663025 
	C718.990906,720.128113 712.870117,743.005432 701.605042,764.036438 
	C701.140991,763.970032 700.676941,763.903687 700.212891,763.837280 
	C699.335632,755.678894 698.458435,747.520508 697.581177,739.362122 
	C697.418640,739.332825 697.256165,739.303528 697.093628,739.274292 
	C693.843872,758.510498 690.594055,777.746704 687.349609,796.951111 
	C728.128296,806.093689 791.794312,772.009338 822.749390,724.906006 
M682.900757,766.408752 
	C689.103821,727.804321 695.099121,689.164978 701.588928,650.608826 
	C705.407227,627.924561 709.283875,605.326782 706.214783,582.204468 
	C705.950195,580.211243 706.179688,578.152527 706.179688,575.279968 
	C704.339600,576.663147 703.538879,577.232544 702.772827,577.845520 
	C661.031860,611.245300 619.539490,644.964355 577.365479,677.808044 
	C567.984436,685.113708 563.558350,691.966553 565.582458,704.151733 
	C567.577759,716.163879 566.483643,716.322388 578.320923,719.178101 
	C586.596985,721.174683 594.854248,723.248840 603.482788,725.377808 
	C602.265137,727.420227 601.445251,728.850952 600.573364,730.249329 
	C588.514465,749.589966 576.426208,768.912292 564.424805,788.288452 
	C563.419495,789.911499 562.351074,791.904419 562.394714,793.699158 
	C562.609253,802.522217 563.120667,811.341187 563.717590,820.148621 
	C563.804199,821.426941 564.597717,823.116882 565.612732,823.794434 
	C570.403442,826.992126 575.385071,829.903625 580.410767,832.985962 
	C590.337952,817.489868 600.035156,802.369263 609.715271,787.237732 
	C619.372986,772.141052 629.013550,757.033386 638.974487,741.440796 
	C652.523438,756.683044 665.683167,771.487427 679.445190,786.969299 
	C680.685486,779.637634 681.731445,773.454651 682.900757,766.408752 
M624.240479,397.940552 
	C616.904358,397.549255 613.266785,393.921783 613.105103,386.742310 
	C613.034180,383.593018 613.093140,380.440765 613.093140,377.289856 
	C612.595398,377.198700 612.097656,377.107544 611.599854,377.016357 
	C609.965027,380.049713 607.908569,382.933716 606.771423,386.143402 
	C602.753845,397.483276 609.846252,406.747467 621.848328,406.156067 
	C632.569336,405.627808 643.184204,395.197113 643.892395,384.494659 
	C644.364319,377.362305 640.312073,371.901855 633.142578,370.385956 
	C633.142578,375.740234 633.180481,381.029510 633.132996,386.318054 
	C633.073242,392.977417 631.427307,395.274109 624.240479,397.940552 
M792.235046,358.595703 
	C797.208923,348.308441 795.356079,340.275360 786.553162,336.471313 
	C786.553162,341.031006 786.901001,345.357666 786.466370,349.604279 
	C785.904663,355.093201 781.339111,358.856781 776.297363,358.662628 
	C771.159302,358.464752 767.195557,354.479797 766.706787,348.968597 
	C766.546387,347.159912 766.491638,345.341888 766.388611,343.528137 
	C764.078308,345.724091 762.665894,347.986145 761.900574,350.449280 
	C758.396301,361.727386 766.241394,371.028839 777.589478,369.210876 
	C783.956482,368.190887 788.397400,364.406006 792.235046,358.595703 
M654.138123,596.566711 
	C653.788086,599.194946 653.438049,601.823120 652.986145,605.216431 
	C657.713989,601.307617 661.703247,598.009399 666.110596,594.365601 
	C662.957031,593.825867 660.396484,593.035217 657.860168,593.106384 
	C656.643555,593.140503 655.472656,594.804321 654.138123,596.566711 
z"/>
<path fill="#5FA8F7" opacity="1.000000" stroke="none" 
	d="
M415.986694,384.566681 
	C416.067322,391.141357 415.904602,397.729980 416.280243,404.287750 
	C417.021484,417.228546 418.102539,430.149536 418.968079,443.083710 
	C420.610626,467.628754 422.223022,492.175842 423.804504,516.724915 
	C424.905243,533.812683 425.896576,550.907532 427.002930,567.994934 
	C428.570801,592.211365 430.213562,616.422852 431.797363,640.638245 
	C432.871429,657.060120 433.884827,673.485962 434.952026,689.908325 
	C435.954468,705.333679 436.991974,720.756897 437.607330,736.579346 
	C432.033478,740.259094 426.764832,743.392029 421.716217,746.846558 
	C394.502625,765.467346 367.371887,784.209167 340.153229,802.822449 
	C327.653961,811.370056 315.019226,819.719482 302.445923,828.158752 
	C302.685608,815.682007 302.850281,803.203369 303.176849,790.728882 
	C305.852356,688.532349 308.541473,586.336121 311.262329,484.140778 
	C312.405609,441.199066 313.622284,398.259247 314.870758,355.320465 
	C314.923981,353.489197 315.635193,351.677032 316.938416,349.880981 
	C358.365234,349.905945 398.893524,349.905945 440.706909,349.905945 
	C438.836945,352.669708 437.796692,354.290771 436.674042,355.852600 
	C429.788605,365.431427 422.884552,374.996826 415.986694,384.566681 
z"/>
<path fill="#0D7CF1" opacity="1.000000" stroke="none" 
	d="
M416.406464,384.476135 
	C422.884552,374.996826 429.788605,365.431427 436.674042,355.852600 
	C437.796692,354.290771 438.836945,352.669708 440.706909,349.905945 
	C398.893524,349.905945 358.365234,349.905945 317.375336,349.828979 
	C351.705109,341.516235 386.490448,333.254883 421.289673,325.052368 
	C451.407196,317.953339 481.521088,310.836121 511.689362,303.958313 
	C515.827271,303.014923 516.786255,301.221497 516.763855,297.223877 
	C516.594910,267.067657 517.458313,236.884979 516.497742,206.758438 
	C514.833435,154.557922 564.331848,103.167473 619.130737,102.460350 
	C656.114014,101.983116 683.580872,124.895088 688.878052,158.770447 
	C682.901917,161.804688 676.847656,164.447113 670.368530,166.740112 
	C667.109253,140.262329 651.217407,124.609909 625.114746,122.745537 
	C607.112854,121.459763 590.772644,126.933372 576.249329,137.177353 
	C551.254700,154.807266 536.283142,177.954834 536.889648,209.821472 
	C537.409546,237.139984 536.997314,264.476227 536.997314,291.804626 
	C536.997314,293.551361 536.997253,295.298065 536.997253,297.642883 
	C562.882935,291.623138 587.978394,285.787170 613.073853,279.951172 
	C613.152588,299.242645 613.187866,318.534515 613.353027,337.825256 
	C613.380310,341.009827 611.557312,341.539612 609.052002,342.083923 
	C588.547913,346.538513 568.069275,351.110199 547.577637,355.621948 
	C503.995544,365.217590 460.410217,374.798584 416.406464,384.476135 
M516.721863,336.907227 
	C516.721863,331.039185 516.721863,325.171173 516.721863,318.016357 
	C510.506226,323.123291 507.699677,328.236847 507.131439,334.448334 
	C506.386566,342.590393 511.899445,349.073395 520.019531,349.931641 
	C532.148621,351.213562 545.177917,339.978638 545.687622,327.798553 
	C545.971313,321.019623 542.135437,315.477356 536.276428,314.610931 
	C536.276428,320.964661 536.347839,327.275116 536.256042,333.583221 
	C536.167114,339.693420 533.296326,343.518402 528.195068,344.637665 
	C523.605042,345.644775 519.581787,343.185699 516.721863,336.907227 
z"/>
<path fill="#0D7CF2" opacity="1.000000" stroke="none" 
	d="
M302.519989,828.449341 
	C315.019226,819.719482 327.653961,811.370056 340.153229,802.822449 
	C367.371887,784.209167 394.502625,765.467346 421.716217,746.846558 
	C426.764832,743.392029 432.033478,740.259094 437.560913,737.018372 
	C440.520081,777.015137 443.125458,816.970825 445.715179,856.927551 
	C447.122894,878.647400 448.503967,900.369080 449.893463,922.521179 
	C433.628815,912.651733 417.334412,902.403198 401.113861,892.039124 
	C369.336853,871.735474 337.600189,851.368713 305.852142,831.019714 
	C304.737091,830.305054 303.678802,829.501892 302.519989,828.449341 
z"/>
<path fill="#1F86F3" opacity="1.000000" stroke="none" 
	d="
M964.109802,262.881958 
	C935.182312,269.518158 905.840515,276.026611 876.510193,282.586121 
	C848.299133,288.895264 820.101013,295.262299 791.892517,301.582825 
	C790.295532,301.940643 788.655579,302.106720 786.242798,302.487000 
	C786.242798,281.261169 786.242798,260.390564 786.345215,239.141479 
	C814.101318,232.386856 841.754944,226.010727 870.006775,219.496689 
	C870.006775,234.090958 870.006775,248.153671 870.006775,262.776520 
	C901.573914,262.776520 932.637207,262.776520 964.109802,262.881958 
z"/>
<path fill="#06182B" opacity="1.000000" stroke="none" 
	d="
M822.147949,725.227173 
	C791.794312,772.009338 728.128296,806.093689 687.349609,796.951111 
	C690.594055,777.746704 693.843872,758.510498 697.093628,739.274292 
	C697.256165,739.303528 697.418640,739.332825 697.581177,739.362122 
	C698.458435,747.520508 699.335632,755.678894 700.212891,763.837280 
	C700.676941,763.903687 701.140991,763.970032 701.605042,764.036438 
	C712.870117,743.005432 718.990906,720.128113 725.439270,696.663025 
	C718.191101,696.663025 711.608826,696.663025 704.270752,696.663025 
	C705.790344,687.227966 707.225830,678.314697 708.781250,668.656921 
	C716.402893,669.049805 723.786438,669.430420 731.586060,669.832458 
	C733.238037,661.715393 734.884949,653.623230 736.667969,644.862244 
	C728.562134,644.862244 720.972656,644.862244 712.811157,644.862244 
	C714.384155,635.246460 715.848755,626.293701 717.314575,617.333374 
	C725.302979,617.333374 733.049561,617.333374 741.272827,617.333374 
	C741.850891,613.509644 742.460815,609.475403 743.178162,604.730835 
	C735.125793,604.730835 727.506409,604.730835 719.359863,604.730835 
	C719.636108,602.651428 719.817688,601.284790 720.021912,599.747070 
	C727.868530,599.747070 735.480530,599.747070 743.696838,599.747070 
	C743.985596,598.047913 744.277893,596.328430 744.656067,594.103210 
	C736.734253,594.103210 729.155151,594.103210 721.169556,594.103210 
	C722.167603,587.916382 723.084045,582.235840 724.054077,576.223022 
	C731.622620,576.223022 739.031738,576.223022 746.763000,576.223022 
	C747.615906,568.360168 748.433105,560.826355 749.265076,553.156982 
	C739.029297,552.400391 729.282837,551.610107 719.522827,551.059509 
	C718.469055,551.000122 717.102905,552.128479 716.292908,553.062500 
	C714.892151,554.677673 713.813843,556.572327 712.600220,558.349670 
	C711.951843,557.904785 711.303467,557.459961 710.655151,557.015076 
	C711.434021,553.158569 712.212891,549.302063 712.943909,545.682434 
	C725.335266,546.432312 737.253601,547.153503 749.774963,547.911194 
	C749.972290,545.365112 750.119751,543.461731 750.270081,541.521301 
	C735.684692,540.994690 721.267334,540.474182 706.074829,539.925720 
	C704.831055,545.934570 703.168518,552.663818 702.120544,559.487549 
	C701.423706,564.025024 699.746155,567.348999 695.894653,570.136963 
	C688.481750,575.502869 681.350403,581.282288 674.357971,587.192749 
	C671.389771,589.701660 668.477295,590.377380 664.775208,589.717407 
	C658.731384,588.640198 652.626831,587.903687 645.928345,586.933716 
	C644.946167,593.202271 643.607544,599.356323 643.124878,605.576782 
	C642.734802,610.604431 640.957581,614.100403 636.791565,617.130005 
	C629.121826,622.707642 621.473755,628.452209 614.612061,634.965088 
	C607.779297,641.450378 599.782104,643.935242 590.895935,644.952637 
	C588.956543,645.174683 587.051270,645.694763 584.310669,646.240906 
	C589.809448,658.805908 579.478027,662.172974 572.265564,668.127319 
	C567.271545,632.718933 570.606323,598.611328 580.902832,565.097168 
	C593.279846,524.811035 612.776001,488.732330 643.975647,459.743805 
	C664.589050,440.591248 688.157898,426.547821 716.025879,421.027435 
	C746.325562,415.025330 774.530151,420.517883 800.215637,438.065674 
	C827.556030,456.744110 847.769958,481.021698 858.704346,512.519775 
	C865.956299,533.409912 870.160217,554.915649 870.052612,577.094971 
	C870.030029,581.750549 868.701233,586.399719 867.644531,591.491333 
	C867.136658,591.942505 866.958679,591.954102 866.706299,591.509399 
	C866.264221,555.921082 858.150085,514.703430 850.259888,509.048004 
	C855.531494,523.335510 858.573425,537.903442 859.796448,552.754028 
	C864.767090,613.109741 850.185669,668.322144 815.022583,717.744263 
	C794.842834,746.107117 769.413147,768.363464 736.717468,781.489807 
	C723.972961,786.606384 710.770264,789.757507 696.979675,790.272217 
	C692.776489,790.429077 692.782898,790.601501 692.450256,793.922729 
	C723.015442,795.972229 750.088989,786.407532 774.986572,769.439209 
	C793.097534,757.096069 807.587341,741.089172 821.256958,724.163879 
	C821.710693,724.620789 821.929321,724.923950 822.147949,725.227173 
M748.923645,758.127747 
	C759.133118,753.593262 767.015503,746.693909 771.857117,736.399597 
	C774.751465,730.245728 778.268127,724.387573 781.329224,718.308044 
	C783.376892,714.241150 785.115723,710.018860 787.041992,705.757202 
	C784.439331,704.404480 782.433411,703.361877 780.079529,702.138428 
	C771.983276,722.418030 760.848145,740.634949 747.144470,757.958557 
	C747.150391,758.209167 747.156250,758.459778 747.162109,758.710327 
	C747.515991,758.548584 747.869934,758.386902 748.923645,758.127747 
M690.793640,448.704041 
	C668.887451,458.444427 652.008362,474.298340 636.741028,492.720856 
	C639.661133,494.702271 642.225159,496.442078 644.270935,497.830231 
	C651.459778,490.924316 657.643311,483.507446 665.232971,478.043915 
	C676.270447,470.098328 683.979004,459.500671 692.564636,448.904205 
	C692.580139,448.671539 692.595703,448.438843 692.611206,448.206207 
	C692.227112,448.294586 691.842957,448.382996 690.793640,448.704041 
M719.849854,764.041992 
	C727.278625,759.807739 732.191772,753.733887 734.193298,745.269043 
	C735.183594,741.081177 736.925476,737.077026 738.105469,732.926758 
	C741.684753,720.337585 745.155884,707.717651 748.825745,694.547485 
	C755.111389,695.850647 761.388062,697.151917 767.664673,698.453247 
	C767.775085,697.901062 767.885498,697.348938 767.995911,696.796814 
	C759.485352,694.559204 750.974792,692.321594 741.913147,689.939026 
	C735.737549,715.505798 728.635315,740.024231 718.060120,763.965088 
	C718.121399,764.217407 718.182678,764.469788 718.243958,764.722107 
	C718.554199,764.540955 718.864502,764.359863 719.849854,764.041992 
M720.934570,443.795288 
	C715.823181,448.484406 710.349487,452.839996 705.667847,457.924835 
	C691.256775,473.577179 680.669983,491.706787 671.729492,511.393250 
	C674.621704,512.396301 677.058838,513.241516 679.679016,514.150208 
	C680.638062,512.216736 681.297180,510.509460 682.263672,508.998871 
	C690.573242,496.011414 697.965637,482.269989 707.624023,470.370605 
	C714.217041,462.247772 718.430725,453.513763 722.649902,443.955353 
	C722.632935,443.716492 722.615967,443.477661 722.598938,443.238800 
	C722.262085,443.356720 721.925171,443.474640 720.934570,443.795288 
M725.963013,519.413330 
	C725.706848,520.506470 725.450684,521.599609 725.029358,523.397583 
	C734.381714,523.397583 743.398193,523.397583 752.854736,523.397583 
	C753.425842,500.252106 754.214905,477.076233 750.050537,453.989502 
	C738.293274,474.226410 732.265076,496.440613 725.963013,519.413330 
M611.564575,622.998657 
	C617.098083,622.215149 622.631592,621.431580 628.237793,620.637817 
	C629.517395,611.124146 630.745605,601.992798 631.950012,593.038574 
	C622.821655,591.153381 614.110352,589.354248 604.241882,587.316162 
	C602.371948,599.703918 600.507202,612.057007 598.539978,625.089355 
	C603.271790,624.311462 606.983643,623.701294 611.564575,622.998657 
M637.974121,562.464966 
	C641.080383,551.963806 644.259705,541.483032 647.203186,530.936462 
	C647.584473,529.570557 647.297119,527.165161 646.376038,526.440552 
	C642.913269,523.716675 639.059998,521.489319 634.388672,518.448181 
	C627.028198,532.616333 619.828979,546.473877 612.204529,561.150024 
	C620.728943,562.979431 627.651855,564.584106 634.640503,565.816345 
	C635.525940,565.972412 636.755554,564.176331 637.974121,562.464966 
M825.743835,630.765991 
	C830.361328,631.861267 834.978821,632.956543 840.371277,634.235657 
	C842.542236,621.563049 844.631104,609.369385 846.830872,596.528564 
	C837.298279,597.888367 828.948181,599.024109 820.628174,600.349182 
	C819.763672,600.486938 818.520325,601.665771 818.395752,602.501953 
	C817.131409,610.990417 816.063049,619.508057 814.913818,628.214294 
	C818.491638,629.041260 821.716431,629.786621 825.743835,630.765991 
M820.680420,551.791382 
	C820.680420,558.182068 820.680420,564.572754 820.680420,571.407166 
	C829.972656,569.866211 838.411072,568.466858 847.622375,566.939331 
	C845.731018,554.359375 843.925781,542.352295 842.041077,529.816772 
	C837.387939,532.099121 833.713928,533.985535 829.970093,535.721130 
	C820.057007,540.316711 820.044983,540.290771 820.680420,551.791382 
M806.903442,696.525879 
	C808.286682,697.316223 809.669922,698.106567 811.908264,699.385559 
	C818.922119,685.654663 825.746216,672.295349 832.832825,658.421997 
	C824.285217,656.644226 816.906189,655.109497 809.722717,653.615417 
	C805.758362,666.631592 802.006104,678.951477 798.194641,691.465759 
	C800.874023,693.003479 803.590759,694.562683 806.903442,696.525879 
M720.865051,519.491211 
	C722.975830,511.803345 724.817200,504.028931 727.253113,496.445557 
	C732.430847,480.326569 737.145264,463.932831 746.852112,449.774902 
	C749.327881,446.163971 748.661682,443.525696 747.111816,440.279785 
	C745.640137,437.197540 743.577393,437.110046 741.912476,439.655457 
	C739.685547,443.060272 737.775208,446.733765 736.194092,450.487793 
	C731.428467,461.802551 726.408752,473.045990 722.392151,484.630676 
	C718.227722,496.641602 715.120178,509.019012 711.550415,521.236145 
	C711.905945,521.702637 712.261536,522.169128 712.617126,522.635620 
	C715.284973,521.861938 717.952820,521.088196 720.865051,519.491211 
M689.916870,557.360535 
	C690.617493,553.658752 691.318176,549.956970 692.058533,546.045532 
	C685.976257,544.135742 680.232178,542.332153 674.032593,540.385498 
	C670.830200,550.813782 667.787781,560.721130 664.541565,571.292175 
	C672.359192,572.224365 679.463257,573.071533 686.599365,573.922485 
	C687.744263,568.248108 688.758179,563.222656 689.916870,557.360535 
M791.943909,517.737427 
	C792.686707,516.448059 794.204163,515.060303 794.054932,513.884155 
	C792.140869,498.800232 788.488953,484.150970 781.994080,470.338654 
	C780.700073,467.586670 778.677307,465.177368 777.027954,462.666901 
	C777.027954,482.050690 777.027954,501.070709 777.027954,520.847778 
	C782.474854,519.716675 786.822266,518.813904 791.943909,517.737427 
M777.881653,672.294983 
	C780.110535,664.910095 782.339478,657.525146 784.746948,649.548706 
	C777.126831,648.701599 770.335388,647.946655 763.418701,647.177734 
	C761.533020,656.832703 759.763489,665.893066 757.954834,675.153809 
	C763.706665,676.896729 769.164307,678.550537 774.841736,680.270935 
	C775.854675,677.634644 776.737000,675.338318 777.881653,672.294983 
M794.963318,547.456177 
	C788.673279,548.706970 782.383240,549.957764 776.084534,551.210266 
	C775.326904,559.574768 774.600586,567.594604 773.831787,576.082825 
	C781.963074,575.393799 789.311646,574.771057 797.024719,574.117432 
	C797.024719,565.433655 797.057068,557.457458 796.971252,549.482605 
	C796.963196,548.740784 796.205933,548.006897 794.963318,547.456177 
M594.560364,576.961975 
	C593.738708,578.182861 592.452148,579.305786 592.170715,580.640625 
	C590.291138,589.557556 588.391235,598.482422 586.967041,607.479065 
	C585.867737,614.423462 585.452698,621.476257 584.713074,628.679199 
	C593.476685,627.369629 593.021912,627.313599 594.019714,619.214172 
	C595.533630,606.925781 597.753174,594.724304 599.762817,581.912842 
	C611.055054,584.515686 621.185181,586.850647 631.692932,589.272644 
	C631.880005,587.754578 632.024841,586.579041 632.157532,585.502197 
	C619.616638,582.629028 607.499146,579.852905 594.560364,576.961975 
M627.804016,508.240723 
	C626.691467,508.613342 625.060974,508.638275 624.542786,509.410004 
	C614.425415,524.477539 606.287781,540.564514 599.735535,558.009766 
	C602.824585,558.810059 605.633545,559.537720 607.582581,560.042603 
	C616.114258,543.736816 624.372131,527.954346 632.727051,511.986389 
	C631.580505,511.137085 629.981201,509.952454 627.804016,508.240723 
M815.419922,547.007202 
	C815.361145,545.842285 815.466919,544.640503 815.215271,543.518860 
	C814.111816,538.600952 816.016113,536.225891 820.847839,534.520874 
	C827.495117,532.175171 833.736938,528.680237 840.234131,525.639404 
	C839.201233,522.329346 838.388367,519.724487 837.670105,517.422668 
	C828.905334,521.459900 820.451843,525.296448 812.073547,529.290894 
	C811.107178,529.751587 809.924072,531.085144 809.914307,532.025146 
	C809.774231,545.495056 809.818604,558.966919 809.818604,572.812805 
	C812.155212,572.352600 813.874084,572.014038 815.478638,571.697998 
	C815.478638,563.558228 815.478638,555.745544 815.419922,547.007202 
M808.052917,593.694031 
	C806.604187,604.154602 805.155396,614.615112 803.661438,625.402222 
	C805.883667,625.812500 807.747131,626.156555 810.217041,626.612610 
	C811.514587,617.486084 812.997314,608.832520 813.863037,600.117676 
	C814.223572,596.489014 815.655823,595.426758 818.991394,595.010071 
	C828.310364,593.846069 837.587280,592.345825 846.802673,590.989807 
	C846.802673,588.260010 846.802673,586.218323 846.802673,584.352417 
	C835.149780,586.091309 823.830750,587.763855 812.518860,589.483826 
	C810.500854,589.790649 807.902283,589.492859 808.052917,593.694031 
M665.885254,549.431396 
	C667.619629,544.301270 669.354004,539.171204 671.048889,534.157837 
	C678.524902,536.584290 685.437500,538.827820 692.350098,541.071350 
	C692.735657,540.647766 693.121277,540.224182 693.506897,539.800537 
	C692.592529,538.677185 691.879700,536.880798 690.731812,536.537048 
	C681.686340,533.828369 672.557739,531.397156 663.306213,528.839478 
	C659.223816,541.882141 655.056519,555.195862 650.740234,568.985413 
	C654.244324,569.472900 656.950623,569.849365 659.587646,570.216248 
	C661.708069,563.188293 663.669312,556.687744 665.885254,549.431396 
M794.859192,661.288940 
	C792.211853,669.430908 789.564453,677.572876 786.895203,685.782043 
	C789.301941,686.959900 791.327515,687.951233 793.918518,689.219360 
	C798.029724,675.196411 801.983459,661.710571 806.013611,647.964050 
	C815.312195,649.803223 824.574402,651.635254 833.836609,653.467224 
	C834.013733,652.683594 834.190857,651.899963 834.368042,651.116333 
	C823.044983,647.776001 811.414673,645.619751 799.701416,643.222656 
	C798.051575,649.312439 796.536926,654.903381 794.859192,661.288940 
M764.320862,555.813538 
	C763.682251,562.401794 763.043640,568.989990 762.378784,575.848816 
	C764.506470,575.848816 766.396545,575.848816 768.133789,575.848816 
	C768.435852,575.229736 768.677795,574.946289 768.707397,574.642212 
	C769.481689,566.687805 770.436523,558.742920 770.895264,550.769653 
	C771.092346,547.343628 772.360291,546.268738 775.626343,545.929260 
	C780.742188,545.397583 785.814331,544.367310 790.873108,543.384155 
	C797.905151,542.017395 797.892517,541.952454 796.589966,534.496704 
	C786.348511,536.468628 776.105408,538.440857 765.676819,540.448792 
	C765.261658,545.289368 764.849365,550.095642 764.320862,555.813538 
M790.855286,621.447388 
	C791.747681,615.492310 792.640076,609.537292 793.592773,603.179749 
	C785.158020,603.725891 777.659119,604.211365 770.014099,604.706360 
	C769.258850,610.199158 768.571899,615.194641 767.863525,620.346680 
	C773.813904,621.221741 779.182861,622.132568 784.585876,622.742188 
	C786.561584,622.965088 788.617920,622.473022 790.855286,621.447388 
M764.572815,452.054901 
	C765.650391,475.266113 766.727966,498.477325 767.824463,522.096619 
	C768.604553,522.013062 770.471252,521.813110 772.635986,521.581238 
	C773.459106,497.821899 773.661316,474.568726 768.789917,451.602448 
	C768.381348,449.676239 766.305237,448.103760 765.003845,446.366943 
	C764.649719,446.567993 764.295593,446.769012 763.941467,446.970062 
	C764.075378,448.381409 764.209290,449.792725 764.572815,452.054901 
M785.054321,644.667053 
	C785.754639,643.697266 786.454895,642.727539 787.662292,641.055664 
	C775.589478,639.597717 764.425842,638.249573 753.216187,636.895874 
	C750.763306,649.245239 748.440552,660.939514 746.050659,672.971924 
	C748.474548,673.381897 750.675110,673.754150 753.072449,674.159607 
	C755.306091,663.094116 757.432251,652.560974 759.636108,641.643188 
	C768.091492,642.655701 776.177307,643.623962 785.054321,644.667053 
M700.652710,508.182068 
	C703.667664,497.388855 706.682617,486.595673 709.697571,475.802460 
	C709.228638,475.555847 708.759705,475.309235 708.290771,475.062592 
	C700.175537,488.380219 692.060242,501.697815 683.583984,515.607849 
	C689.158936,517.043030 693.288818,518.106201 697.823547,519.273560 
	C698.720459,515.641235 699.545715,512.299255 700.652710,508.182068 
M757.769775,701.603210 
	C755.882141,701.236572 753.994507,700.869934 752.127686,700.507324 
	C747.969421,715.253357 743.971069,729.432129 739.972717,743.610962 
	C750.541931,731.595398 758.438721,718.042053 764.946655,703.356873 
	C762.447021,702.752930 760.512329,702.285400 757.769775,701.603210 
M815.599243,505.772156 
	C815.869507,506.820801 816.139771,507.869446 816.551147,509.465454 
	C821.768738,506.839874 826.569458,504.424072 831.575378,501.905029 
	C824.496643,490.098907 816.791260,479.841400 806.621155,471.585602 
	C809.592285,482.952362 812.473328,493.974213 815.599243,505.772156 
M759.772705,595.279907 
	C758.532166,603.110046 757.291626,610.940247 755.996521,619.114685 
	C758.373779,619.382141 760.430237,619.613464 762.777222,619.877441 
	C763.846924,613.047241 764.857666,606.594055 765.854126,600.231567 
	C774.077087,599.765808 781.702148,599.057495 789.332153,598.999451 
	C794.390320,598.960938 795.627625,596.769348 794.727905,592.093567 
	C783.201965,592.967041 771.807251,593.830505 759.772705,595.279907 
M807.147583,491.288635 
	C804.876526,483.499634 802.513916,475.749817 798.058777,468.976288 
	C801.486816,483.319580 804.914856,497.662903 808.342896,512.006165 
	C808.714600,512.206299 809.086304,512.406433 809.458069,512.606567 
	C810.042175,511.265625 811.311707,509.799377 811.093445,508.605133 
	C810.078552,503.053558 808.651611,497.577271 807.147583,491.288635 
M666.641052,487.175568 
	C667.439880,485.545532 668.238647,483.915497 669.037476,482.285461 
	C668.663391,482.021881 668.289368,481.758301 667.915344,481.494720 
	C661.719849,487.658539 655.524414,493.822357 648.797607,500.514771 
	C652.250977,502.464172 654.778198,503.890808 657.495422,505.424652 
	C660.519287,499.328094 663.380432,493.559723 666.641052,487.175568 
M782.482483,726.967041 
	C780.880310,730.007446 779.278137,733.047852 777.731445,735.982910 
	C784.501831,729.812195 791.139465,723.762573 798.288330,717.246948 
	C794.777527,715.314331 792.270203,713.934143 789.615295,712.472656 
	C787.190125,717.441223 785.022522,721.882141 782.482483,726.967041 
M728.976135,640.346619 
	C732.090393,640.536072 735.204712,640.725525 738.594177,640.931702 
	C738.857910,639.193848 739.068604,637.805176 739.357178,635.903809 
	C731.785400,635.551086 724.530762,635.213135 716.992432,634.862000 
	C716.674133,636.782166 716.423035,638.297363 716.090088,640.306213 
	C720.442627,640.306213 724.246277,640.306213 728.976135,640.346619 
M724.492126,692.475891 
	C727.706665,692.931763 728.681396,691.584229 727.682617,688.233459 
	C722.371155,687.955505 717.093872,687.789795 711.837341,687.366211 
	C708.197998,687.073059 707.677124,688.883362 708.285461,692.391418 
	C713.427429,692.391418 718.531311,692.391418 724.492126,692.475891 
M777.440674,737.765015 
	C777.513184,737.584961 777.585693,737.404907 777.658203,737.224792 
	C777.477417,737.273132 777.296570,737.321411 777.440674,737.765015 
z"/>
<path fill="#04162A" opacity="1.000000" stroke="none" 
	d="
M682.839111,766.840210 
	C681.731445,773.454651 680.685486,779.637634 679.445190,786.969299 
	C665.683167,771.487427 652.523438,756.683044 638.974487,741.440796 
	C629.013550,757.033386 619.372986,772.141052 609.715271,787.237732 
	C600.035156,802.369263 590.337952,817.489868 580.410767,832.985962 
	C575.385071,829.903625 570.403442,826.992126 565.612732,823.794434 
	C564.597717,823.116882 563.804199,821.426941 563.717590,820.148621 
	C563.120667,811.341187 562.609253,802.522217 562.394714,793.699158 
	C562.351074,791.904419 563.419495,789.911499 564.424805,788.288452 
	C576.426208,768.912292 588.514465,749.589966 600.573364,730.249329 
	C601.445251,728.850952 602.265137,727.420227 603.482788,725.377808 
	C594.854248,723.248840 586.596985,721.174683 578.320923,719.178101 
	C566.483643,716.322388 567.577759,716.163879 565.582458,704.151733 
	C563.558350,691.966553 567.984436,685.113708 577.365479,677.808044 
	C619.539490,644.964355 661.031860,611.245300 702.772827,577.845520 
	C703.538879,577.232544 704.339600,576.663147 706.179688,575.279968 
	C706.179688,578.152527 705.950195,580.211243 706.214783,582.204468 
	C709.283875,605.326782 705.407227,627.924561 701.588928,650.608826 
	C695.099121,689.164978 689.103821,727.804321 682.839111,766.840210 
M617.502625,748.981384 
	C606.790527,765.633606 596.239136,782.392700 585.276917,798.878601 
	C581.568665,804.455444 583.149414,809.993286 583.327026,815.697510 
	C600.026367,790.444641 616.111389,765.008667 632.569214,739.816345 
	C636.022278,734.530701 634.722839,729.593872 633.504150,724.116821 
	C628.304138,732.203308 623.104126,740.289734 617.502625,748.981384 
M581.220947,713.248291 
	C585.718445,714.369629 590.212891,715.503479 594.714050,716.609802 
	C607.373352,719.721436 607.376526,719.718445 614.169250,708.630127 
	C614.404846,708.245605 614.505371,707.778503 614.766907,707.092834 
	C600.575195,702.875366 586.493164,698.690491 572.317261,694.477722 
	C570.849792,709.714294 571.429016,710.999390 581.220947,713.248291 
M690.796021,658.159546 
	C685.244446,684.655457 679.305420,711.080444 674.427612,737.699829 
	C673.281372,743.955444 675.719299,750.867859 676.508301,757.478088 
	C676.889648,757.425415 677.270996,757.372803 677.652283,757.320129 
	C684.557373,714.389343 691.462463,671.458557 698.367554,628.527832 
	C697.138977,628.722107 696.858459,629.109314 696.767944,629.536804 
	C694.808716,638.797363 692.870728,648.062317 690.796021,658.159546 
M649.502014,726.997131 
	C646.880615,724.879578 644.259216,722.762024 641.205627,720.295349 
	C640.590149,729.265198 641.640625,736.534363 648.350220,742.270203 
	C652.232727,745.589294 655.282104,749.882507 658.709473,753.734680 
	C662.880737,758.422974 667.055176,763.108459 672.050476,768.718628 
	C671.281799,764.602356 670.312256,761.832703 670.325012,759.067566 
	C670.386658,745.659302 663.839417,736.341797 652.778015,729.625793 
	C651.792358,729.027344 650.957642,728.180298 649.502014,726.997131 
M571.430237,800.196228 
	C569.122986,798.830200 569.078125,800.226868 569.186707,801.977661 
	C569.452393,806.260986 570.028992,810.568115 569.793518,814.827698 
	C569.537903,819.450684 571.942383,821.125061 576.047180,822.203674 
	C576.047180,817.078003 575.783386,812.281799 576.134338,807.531067 
	C576.393921,804.018188 575.156311,801.903442 571.430237,800.196228 
z"/>
<path fill="#021528" opacity="1.000000" stroke="none" 
	d="
M613.181091,279.497650 
	C587.978394,285.787170 562.882935,291.623138 536.997253,297.642883 
	C536.997253,295.298065 536.997314,293.551361 536.997314,291.804626 
	C536.997314,264.476227 537.409546,237.139984 536.889648,209.821472 
	C536.283142,177.954834 551.254700,154.807266 576.249329,137.177353 
	C590.772644,126.933372 607.112854,121.459763 625.114746,122.745537 
	C651.217407,124.609909 667.109253,140.262329 670.012878,166.820007 
	C654.642639,176.511902 641.202820,187.967514 630.956665,202.925415 
	C619.263062,219.996414 612.959351,238.728958 613.342285,259.570526 
	C613.461548,266.059174 613.313782,272.552795 613.181091,279.497650 
z"/>
<path fill="#0E7CF0" opacity="1.000000" stroke="none" 
	d="
M766.226074,243.802643 
	C766.370605,248.440918 766.623535,253.078812 766.639709,257.717529 
	C766.692505,272.856628 766.600098,287.996429 766.708740,303.134918 
	C766.730164,306.116608 765.913208,307.473969 762.753479,308.160858 
	C721.030945,317.231049 679.344360,326.466187 637.642883,335.633484 
	C636.563599,335.870728 635.418152,335.807251 633.688293,335.926453 
	C633.688293,315.712219 633.688293,295.799042 634.173706,275.366150 
	C645.171570,272.355255 655.666870,269.787506 666.208496,267.426392 
	C668.867249,266.830902 670.096497,265.942535 670.074524,262.902374 
	C669.903809,239.267426 669.921692,215.631088 669.881226,191.995193 
	C676.225464,188.337524 682.569702,184.679855 689.270142,181.476532 
	C689.626282,208.251434 689.626282,234.571976 689.626282,261.375763 
	C692.041565,260.888580 693.493774,260.632385 694.928528,260.300751 
	C718.695679,254.806961 742.460693,249.303741 766.226074,243.802643 
M695.938232,287.882446 
	C694.393799,285.544952 692.849426,283.207428 691.305054,280.869934 
	C690.832703,281.087769 690.360413,281.305603 689.888123,281.523468 
	C689.888123,286.109314 690.009399,290.699188 689.858765,295.280090 
	C689.650146,301.623444 685.407410,306.015625 679.750183,306.004150 
	C673.999512,305.992493 670.016724,301.686920 669.855957,295.202637 
	C669.776428,291.994354 669.842163,288.782501 669.842163,285.572235 
	C669.179077,285.416046 668.515991,285.259827 667.852905,285.103607 
	C666.230896,289.091187 663.741577,292.955383 663.153442,297.089996 
	C661.549133,308.369507 670.119873,315.645233 681.056885,312.897949 
	C691.149414,310.362793 698.256653,298.923492 695.938232,287.882446 
z"/>
<path fill="#021528" opacity="1.000000" stroke="none" 
	d="
M766.340088,243.405609 
	C742.460693,249.303741 718.695679,254.806961 694.928528,260.300751 
	C693.493774,260.632385 692.041565,260.888580 689.626282,261.375763 
	C689.626282,234.571976 689.626282,208.251434 689.617676,181.464844 
	C706.340698,174.014450 723.288086,172.275711 740.252991,179.838150 
	C755.866394,186.798111 764.283813,199.396545 765.961243,216.146881 
	C766.850708,225.028168 766.335327,234.050125 766.340088,243.405609 
z"/>
<path fill="#031528" opacity="1.000000" stroke="none" 
	d="
M669.559631,192.078003 
	C669.921692,215.631088 669.903809,239.267426 670.074524,262.902374 
	C670.096497,265.942535 668.867249,266.830902 666.208496,267.426392 
	C655.666870,269.787506 645.171570,272.355255 634.266724,274.902161 
	C630.067078,240.697968 641.600708,212.990341 669.559631,192.078003 
z"/>
<path fill="#081A2E" opacity="1.000000" stroke="none" 
	d="
M624.633789,397.897461 
	C631.427307,395.274109 633.073242,392.977417 633.132996,386.318054 
	C633.180481,381.029510 633.142578,375.740234 633.142578,370.385956 
	C640.312073,371.901855 644.364319,377.362305 643.892395,384.494659 
	C643.184204,395.197113 632.569336,405.627808 621.848328,406.156067 
	C609.846252,406.747467 602.753845,397.483276 606.771423,386.143402 
	C607.908569,382.933716 609.965027,380.049713 611.599854,377.016357 
	C612.097656,377.107544 612.595398,377.198700 613.093140,377.289856 
	C613.093140,380.440765 613.034180,383.593018 613.105103,386.742310 
	C613.266785,393.921783 616.904358,397.549255 624.633789,397.897461 
z"/>
<path fill="#081A2E" opacity="1.000000" stroke="none" 
	d="
M792.060364,358.924500 
	C788.397400,364.406006 783.956482,368.190887 777.589478,369.210876 
	C766.241394,371.028839 758.396301,361.727386 761.900574,350.449280 
	C762.665894,347.986145 764.078308,345.724091 766.388611,343.528137 
	C766.491638,345.341888 766.546387,347.159912 766.706787,348.968597 
	C767.195557,354.479797 771.159302,358.464752 776.297363,358.662628 
	C781.339111,358.856781 785.904663,355.093201 786.466370,349.604279 
	C786.901001,345.357666 786.553162,341.031006 786.553162,336.471313 
	C795.356079,340.275360 797.208923,348.308441 792.060364,358.924500 
z"/>
<path fill="#283C52" opacity="1.000000" stroke="none" 
	d="
M866.780762,591.965698 
	C866.958679,591.954102 867.136658,591.942505 867.581665,591.946289 
	C867.469543,617.128845 862.101685,641.351196 853.835815,664.993225 
	C846.338684,686.436523 835.966309,706.416321 822.448669,725.066589 
	C821.929321,724.923950 821.710693,724.620789 821.340332,723.832336 
	C843.694824,692.568665 857.135498,658.065735 863.157776,620.577332 
	C864.681702,611.090942 865.589722,601.505554 866.780762,591.965698 
z"/>
<path fill="#081A2E" opacity="1.000000" stroke="none" 
	d="
M654.209595,596.148376 
	C655.472656,594.804321 656.643555,593.140503 657.860168,593.106384 
	C660.396484,593.035217 662.957031,593.825867 666.110596,594.365601 
	C661.703247,598.009399 657.713989,601.307617 652.986145,605.216431 
	C653.438049,601.823120 653.788086,599.194946 654.209595,596.148376 
z"/>
<path fill="#031A33" opacity="1.000000" stroke="none" 
	d="
M516.825195,337.329407 
	C519.581787,343.185699 523.605042,345.644775 528.195068,344.637665 
	C533.296326,343.518402 536.167114,339.693420 536.256042,333.583221 
	C536.347839,327.275116 536.276428,320.964661 536.276428,314.610931 
	C542.135437,315.477356 545.971313,321.019623 545.687622,327.798553 
	C545.177917,339.978638 532.148621,351.213562 520.019531,349.931641 
	C511.899445,349.073395 506.386566,342.590393 507.131439,334.448334 
	C507.699677,328.236847 510.506226,323.123291 516.721863,318.016357 
	C516.721863,325.171173 516.721863,331.039185 516.825195,337.329407 
z"/>
<path fill="#BAD6F5" opacity="1.000000" stroke="none" 
	d="
M866.706299,591.509399 
	C865.589722,601.505554 864.681702,611.090942 863.157776,620.577332 
	C857.135498,658.065735 843.694824,692.568665 821.105286,723.678589 
	C807.587341,741.089172 793.097534,757.096069 774.986572,769.439209 
	C750.088989,786.407532 723.015442,795.972229 692.450256,793.922729 
	C692.782898,790.601501 692.776489,790.429077 696.979675,790.272217 
	C710.770264,789.757507 723.972961,786.606384 736.717468,781.489807 
	C769.413147,768.363464 794.842834,746.107117 815.022583,717.744263 
	C850.185669,668.322144 864.767090,613.109741 859.796448,552.754028 
	C858.573425,537.903442 855.531494,523.335510 850.259888,509.048004 
	C858.150085,514.703430 866.264221,555.921082 866.706299,591.509399 
z"/>
<path fill="#BEDBF9" opacity="1.000000" stroke="none" 
	d="
M726.034302,519.009827 
	C732.265076,496.440613 738.293274,474.226410 750.050537,453.989502 
	C754.214905,477.076233 753.425842,500.252106 752.854736,523.397583 
	C743.398193,523.397583 734.381714,523.397583 725.029358,523.397583 
	C725.450684,521.599609 725.706848,520.506470 726.034302,519.009827 
z"/>
<path fill="#BDD9F8" opacity="1.000000" stroke="none" 
	d="
M611.130005,623.044861 
	C606.983643,623.701294 603.271790,624.311462 598.539978,625.089355 
	C600.507202,612.057007 602.371948,599.703918 604.241882,587.316162 
	C614.110352,589.354248 622.821655,591.153381 631.950012,593.038574 
	C630.745605,601.992798 629.517395,611.124146 628.237793,620.637817 
	C622.631592,621.431580 617.098083,622.215149 611.130005,623.044861 
z"/>
<path fill="#BDD9F8" opacity="1.000000" stroke="none" 
	d="
M637.899902,562.874817 
	C636.755554,564.176331 635.525940,565.972412 634.640503,565.816345 
	C627.651855,564.584106 620.728943,562.979431 612.204529,561.150024 
	C619.828979,546.473877 627.028198,532.616333 634.388672,518.448181 
	C639.059998,521.489319 642.913269,523.716675 646.376038,526.440552 
	C647.297119,527.165161 647.584473,529.570557 647.203186,530.936462 
	C644.259705,541.483032 641.080383,551.963806 637.899902,562.874817 
z"/>
<path fill="#BDD9F8" opacity="1.000000" stroke="none" 
	d="
M825.342529,630.648987 
	C821.716431,629.786621 818.491638,629.041260 814.913818,628.214294 
	C816.063049,619.508057 817.131409,610.990417 818.395752,602.501953 
	C818.520325,601.665771 819.763672,600.486938 820.628174,600.349182 
	C828.948181,599.024109 837.298279,597.888367 846.830872,596.528564 
	C844.631104,609.369385 842.542236,621.563049 840.371277,634.235657 
	C834.978821,632.956543 830.361328,631.861267 825.342529,630.648987 
z"/>
<path fill="#BDD9F8" opacity="1.000000" stroke="none" 
	d="
M820.662964,551.324829 
	C820.044983,540.290771 820.057007,540.316711 829.970093,535.721130 
	C833.713928,533.985535 837.387939,532.099121 842.041077,529.816772 
	C843.925781,542.352295 845.731018,554.359375 847.622375,566.939331 
	C838.411072,568.466858 829.972656,569.866211 820.680420,571.407166 
	C820.680420,564.572754 820.680420,558.182068 820.662964,551.324829 
z"/>
<path fill="#BDD9F8" opacity="1.000000" stroke="none" 
	d="
M806.605469,696.323853 
	C803.590759,694.562683 800.874023,693.003479 798.194641,691.465759 
	C802.006104,678.951477 805.758362,666.631592 809.722717,653.615417 
	C816.906189,655.109497 824.285217,656.644226 832.832825,658.421997 
	C825.746216,672.295349 818.922119,685.654663 811.908264,699.385559 
	C809.669922,698.106567 808.286682,697.316223 806.605469,696.323853 
z"/>
<path fill="#BAD7F6" opacity="1.000000" stroke="none" 
	d="
M720.742859,519.902832 
	C717.952820,521.088196 715.284973,521.861938 712.617126,522.635620 
	C712.261536,522.169128 711.905945,521.702637 711.550415,521.236145 
	C715.120178,509.019012 718.227722,496.641602 722.392151,484.630676 
	C726.408752,473.045990 731.428467,461.802551 736.194092,450.487793 
	C737.775208,446.733765 739.685547,443.060272 741.912476,439.655457 
	C743.577393,437.110046 745.640137,437.197540 747.111816,440.279785 
	C748.661682,443.525696 749.327881,446.163971 746.852112,449.774902 
	C737.145264,463.932831 732.430847,480.326569 727.253113,496.445557 
	C724.817200,504.028931 722.975830,511.803345 720.742859,519.902832 
z"/>
<path fill="#BAD6F5" opacity="1.000000" stroke="none" 
	d="
M722.179932,444.174957 
	C718.430725,453.513763 714.217041,462.247772 707.624023,470.370605 
	C697.965637,482.269989 690.573242,496.011414 682.263672,508.998871 
	C681.297180,510.509460 680.638062,512.216736 679.679016,514.150208 
	C677.058838,513.241516 674.621704,512.396301 671.729492,511.393250 
	C680.669983,491.706787 691.256775,473.577179 705.667847,457.924835 
	C710.349487,452.839996 715.823181,448.484406 721.408813,443.840088 
	C721.882996,443.884918 722.179932,444.174957 722.179932,444.174957 
z"/>
<path fill="#B8D5F3" opacity="1.000000" stroke="none" 
	d="
M718.330139,763.487549 
	C728.635315,740.024231 735.737549,715.505798 741.913147,689.939026 
	C750.974792,692.321594 759.485352,694.559204 767.995911,696.796814 
	C767.885498,697.348938 767.775085,697.901062 767.664673,698.453247 
	C761.388062,697.151917 755.111389,695.850647 748.825745,694.547485 
	C745.155884,707.717651 741.684753,720.337585 738.105469,732.926758 
	C736.925476,737.077026 735.183594,741.081177 734.193298,745.269043 
	C732.191772,753.733887 727.278625,759.807739 719.308838,763.928162 
	C718.621887,763.705383 718.476013,763.596497 718.330139,763.487549 
z"/>
<path fill="#BCD9F7" opacity="1.000000" stroke="none" 
	d="
M689.844482,557.778931 
	C688.758179,563.222656 687.744263,568.248108 686.599365,573.922485 
	C679.463257,573.071533 672.359192,572.224365 664.541565,571.292175 
	C667.787781,560.721130 670.830200,550.813782 674.032593,540.385498 
	C680.232178,542.332153 685.976257,544.135742 692.058533,546.045532 
	C691.318176,549.956970 690.617493,553.658752 689.844482,557.778931 
z"/>
<path fill="#BCD9F7" opacity="1.000000" stroke="none" 
	d="
M791.556824,517.824341 
	C786.822266,518.813904 782.474854,519.716675 777.027954,520.847778 
	C777.027954,501.070709 777.027954,482.050690 777.027954,462.666901 
	C778.677307,465.177368 780.700073,467.586670 781.994080,470.338654 
	C788.488953,484.150970 792.140869,498.800232 794.054932,513.884155 
	C794.204163,515.060303 792.686707,516.448059 791.556824,517.824341 
z"/>
<path fill="#BAD7F6" opacity="1.000000" stroke="none" 
	d="
M692.024658,449.021851 
	C683.979004,459.500671 676.270447,470.098328 665.232971,478.043915 
	C657.643311,483.507446 651.459778,490.924316 644.270935,497.830231 
	C642.225159,496.442078 639.661133,494.702271 636.741028,492.720856 
	C652.008362,474.298340 668.887451,458.444427 691.263550,448.729614 
	C691.733459,448.755157 692.024658,449.021851 692.024658,449.021851 
z"/>
<path fill="#BCD9F7" opacity="1.000000" stroke="none" 
	d="
M777.750488,672.668518 
	C776.737000,675.338318 775.854675,677.634644 774.841736,680.270935 
	C769.164307,678.550537 763.706665,676.896729 757.954834,675.153809 
	C759.763489,665.893066 761.533020,656.832703 763.418701,647.177734 
	C770.335388,647.946655 777.126831,648.701599 784.746948,649.548706 
	C782.339478,657.525146 780.110535,664.910095 777.750488,672.668518 
z"/>
<path fill="#BDD9F8" opacity="1.000000" stroke="none" 
	d="
M795.379883,547.362793 
	C796.205933,548.006897 796.963196,548.740784 796.971252,549.482605 
	C797.057068,557.457458 797.024719,565.433655 797.024719,574.117432 
	C789.311646,574.771057 781.963074,575.393799 773.831787,576.082825 
	C774.600586,567.594604 775.326904,559.574768 776.084534,551.210266 
	C782.383240,549.957764 788.673279,548.706970 795.379883,547.362793 
z"/>
<path fill="#B8D5F3" opacity="1.000000" stroke="none" 
	d="
M594.971069,577.019409 
	C607.499146,579.852905 619.616638,582.629028 632.157532,585.502197 
	C632.024841,586.579041 631.880005,587.754578 631.692932,589.272644 
	C621.185181,586.850647 611.055054,584.515686 599.762817,581.912842 
	C597.753174,594.724304 595.533630,606.925781 594.019714,619.214172 
	C593.021912,627.313599 593.476685,627.369629 584.713074,628.679199 
	C585.452698,621.476257 585.867737,614.423462 586.967041,607.479065 
	C588.391235,598.482422 590.291138,589.557556 592.170715,580.640625 
	C592.452148,579.305786 593.738708,578.182861 594.971069,577.019409 
z"/>
<path fill="#BAD7F6" opacity="1.000000" stroke="none" 
	d="
M628.093018,508.504272 
	C629.981201,509.952454 631.580505,511.137085 632.727051,511.986389 
	C624.372131,527.954346 616.114258,543.736816 607.582581,560.042603 
	C605.633545,559.537720 602.824585,558.810059 599.735535,558.009766 
	C606.287781,540.564514 614.425415,524.477539 624.542786,509.410004 
	C625.060974,508.638275 626.691467,508.613342 628.093018,508.504272 
z"/>
<path fill="#B6D2F0" opacity="1.000000" stroke="none" 
	d="
M815.449280,547.469971 
	C815.478638,555.745544 815.478638,563.558228 815.478638,571.697998 
	C813.874084,572.014038 812.155212,572.352600 809.818604,572.812805 
	C809.818604,558.966919 809.774231,545.495056 809.914307,532.025146 
	C809.924072,531.085144 811.107178,529.751587 812.073547,529.290894 
	C820.451843,525.296448 828.905334,521.459900 837.670105,517.422668 
	C838.388367,519.724487 839.201233,522.329346 840.234131,525.639404 
	C833.736938,528.680237 827.495117,532.175171 820.847839,534.520874 
	C816.016113,536.225891 814.111816,538.600952 815.215271,543.518860 
	C815.466919,544.640503 815.361145,545.842285 815.449280,547.469971 
z"/>
<path fill="#B8D5F3" opacity="1.000000" stroke="none" 
	d="
M808.086548,593.256348 
	C807.902283,589.492859 810.500854,589.790649 812.518860,589.483826 
	C823.830750,587.763855 835.149780,586.091309 846.802673,584.352417 
	C846.802673,586.218323 846.802673,588.260010 846.802673,590.989807 
	C837.587280,592.345825 828.310364,593.846069 818.991394,595.010071 
	C815.655823,595.426758 814.223572,596.489014 813.863037,600.117676 
	C812.997314,608.832520 811.514587,617.486084 810.217041,626.612610 
	C807.747131,626.156555 805.883667,625.812500 803.661438,625.402222 
	C805.155396,614.615112 806.604187,604.154602 808.086548,593.256348 
z"/>
<path fill="#B8D5F3" opacity="1.000000" stroke="none" 
	d="
M747.617615,757.607788 
	C760.848145,740.634949 771.983276,722.418030 780.079529,702.138428 
	C782.433411,703.361877 784.439331,704.404480 787.041992,705.757202 
	C785.115723,710.018860 783.376892,714.241150 781.329224,718.308044 
	C778.268127,724.387573 774.751465,730.245728 771.857117,736.399597 
	C767.015503,746.693909 759.133118,753.593262 748.422119,758.022217 
	C747.920593,757.916687 747.617615,757.607788 747.617615,757.607788 
z"/>
<path fill="#B8D5F3" opacity="1.000000" stroke="none" 
	d="
M665.757935,549.809326 
	C663.669312,556.687744 661.708069,563.188293 659.587646,570.216248 
	C656.950623,569.849365 654.244324,569.472900 650.740234,568.985413 
	C655.056519,555.195862 659.223816,541.882141 663.306213,528.839478 
	C672.557739,531.397156 681.686340,533.828369 690.731812,536.537048 
	C691.879700,536.880798 692.592529,538.677185 693.506897,539.800537 
	C693.121277,540.224182 692.735657,540.647766 692.350098,541.071350 
	C685.437500,538.827820 678.524902,536.584290 671.048889,534.157837 
	C669.354004,539.171204 667.619629,544.301270 665.757935,549.809326 
z"/>
<path fill="#B8D5F3" opacity="1.000000" stroke="none" 
	d="
M794.940674,660.891602 
	C796.536926,654.903381 798.051575,649.312439 799.701416,643.222656 
	C811.414673,645.619751 823.044983,647.776001 834.368042,651.116333 
	C834.190857,651.899963 834.013733,652.683594 833.836609,653.467224 
	C824.574402,651.635254 815.312195,649.803223 806.013611,647.964050 
	C801.983459,661.710571 798.029724,675.196411 793.918518,689.219360 
	C791.327515,687.951233 789.301941,686.959900 786.895203,685.782043 
	C789.564453,677.572876 792.211853,669.430908 794.940674,660.891602 
z"/>
<path fill="#B8D5F3" opacity="1.000000" stroke="none" 
	d="
M764.379028,555.357727 
	C764.849365,550.095642 765.261658,545.289368 765.676819,540.448792 
	C776.105408,538.440857 786.348511,536.468628 796.589966,534.496704 
	C797.892517,541.952454 797.905151,542.017395 790.873108,543.384155 
	C785.814331,544.367310 780.742188,545.397583 775.626343,545.929260 
	C772.360291,546.268738 771.092346,547.343628 770.895264,550.769653 
	C770.436523,558.742920 769.481689,566.687805 768.707397,574.642212 
	C768.677795,574.946289 768.435852,575.229736 768.133789,575.848816 
	C766.396545,575.848816 764.506470,575.848816 762.378784,575.848816 
	C763.043640,568.989990 763.682251,562.401794 764.379028,555.357727 
z"/>
<path fill="#BAD7F6" opacity="1.000000" stroke="none" 
	d="
M790.746399,621.877258 
	C788.617920,622.473022 786.561584,622.965088 784.585876,622.742188 
	C779.182861,622.132568 773.813904,621.221741 767.863525,620.346680 
	C768.571899,615.194641 769.258850,610.199158 770.014099,604.706360 
	C777.659119,604.211365 785.158020,603.725891 793.592773,603.179749 
	C792.640076,609.537292 791.747681,615.492310 790.746399,621.877258 
z"/>
<path fill="#BAD6F5" opacity="1.000000" stroke="none" 
	d="
M764.458008,451.629486 
	C764.209290,449.792725 764.075378,448.381409 763.941467,446.970062 
	C764.295593,446.769012 764.649719,446.567993 765.003845,446.366943 
	C766.305237,448.103760 768.381348,449.676239 768.789917,451.602448 
	C773.661316,474.568726 773.459106,497.821899 772.635986,521.581238 
	C770.471252,521.813110 768.604553,522.013062 767.824463,522.096619 
	C766.727966,498.477325 765.650391,475.266113 764.458008,451.629486 
z"/>
<path fill="#B8D5F3" opacity="1.000000" stroke="none" 
	d="
M784.658691,644.629639 
	C776.177307,643.623962 768.091492,642.655701 759.636108,641.643188 
	C757.432251,652.560974 755.306091,663.094116 753.072449,674.159607 
	C750.675110,673.754150 748.474548,673.381897 746.050659,672.971924 
	C748.440552,660.939514 750.763306,649.245239 753.216187,636.895874 
	C764.425842,638.249573 775.589478,639.597717 787.662292,641.055664 
	C786.454895,642.727539 785.754639,643.697266 784.658691,644.629639 
z"/>
<path fill="#BAD6F5" opacity="1.000000" stroke="none" 
	d="
M700.511841,508.569702 
	C699.545715,512.299255 698.720459,515.641235 697.823547,519.273560 
	C693.288818,518.106201 689.158936,517.043030 683.583984,515.607849 
	C692.060242,501.697815 700.175537,488.380219 708.290771,475.062592 
	C708.759705,475.309235 709.228638,475.555847 709.697571,475.802460 
	C706.682617,486.595673 703.667664,497.388855 700.511841,508.569702 
z"/>
<path fill="#B8D5F3" opacity="1.000000" stroke="none" 
	d="
M758.173706,701.710571 
	C760.512329,702.285400 762.447021,702.752930 764.946655,703.356873 
	C758.438721,718.042053 750.541931,731.595398 739.972717,743.610962 
	C743.971069,729.432129 747.969421,715.253357 752.127686,700.507324 
	C753.994507,700.869934 755.882141,701.236572 758.173706,701.710571 
z"/>
<path fill="#BAD7F6" opacity="1.000000" stroke="none" 
	d="
M815.476807,505.384125 
	C812.473328,493.974213 809.592285,482.952362 806.621155,471.585602 
	C816.791260,479.841400 824.496643,490.098907 831.575378,501.905029 
	C826.569458,504.424072 821.768738,506.839874 816.551147,509.465454 
	C816.139771,507.869446 815.869507,506.820801 815.476807,505.384125 
z"/>
<path fill="#B6D2F0" opacity="1.000000" stroke="none" 
	d="
M760.092651,594.986938 
	C771.807251,593.830505 783.201965,592.967041 794.727905,592.093567 
	C795.627625,596.769348 794.390320,598.960938 789.332153,598.999451 
	C781.702148,599.057495 774.077087,599.765808 765.854126,600.231567 
	C764.857666,606.594055 763.846924,613.047241 762.777222,619.877441 
	C760.430237,619.613464 758.373779,619.382141 755.996521,619.114685 
	C757.291626,610.940247 758.532166,603.110046 760.092651,594.986938 
z"/>
<path fill="#B4D0EE" opacity="1.000000" stroke="none" 
	d="
M807.259888,491.681335 
	C808.651611,497.577271 810.078552,503.053558 811.093445,508.605133 
	C811.311707,509.799377 810.042175,511.265625 809.458069,512.606567 
	C809.086304,512.406433 808.714600,512.206299 808.342896,512.006165 
	C804.914856,497.662903 801.486816,483.319580 798.058777,468.976288 
	C802.513916,475.749817 804.876526,483.499634 807.259888,491.681335 
z"/>
<path fill="#B8D5F3" opacity="1.000000" stroke="none" 
	d="
M666.441284,487.483459 
	C663.380432,493.559723 660.519287,499.328094 657.495422,505.424652 
	C654.778198,503.890808 652.250977,502.464172 648.797607,500.514771 
	C655.524414,493.822357 661.719849,487.658539 667.915344,481.494720 
	C668.289368,481.758301 668.663391,482.021881 669.037476,482.285461 
	C668.238647,483.915497 667.439880,485.545532 666.441284,487.483459 
z"/>
<path fill="#B8D5F3" opacity="1.000000" stroke="none" 
	d="
M782.668701,726.645020 
	C785.022522,721.882141 787.190125,717.441223 789.615295,712.472656 
	C792.270203,713.934143 794.777527,715.314331 798.288330,717.246948 
	C791.139465,723.762573 784.501831,729.812195 777.731445,735.982910 
	C779.278137,733.047852 780.880310,730.007446 782.668701,726.645020 
z"/>
<path fill="#B4D0EE" opacity="1.000000" stroke="none" 
	d="
M728.513062,640.326416 
	C724.246277,640.306213 720.442627,640.306213 716.090088,640.306213 
	C716.423035,638.297363 716.674133,636.782166 716.992432,634.862000 
	C724.530762,635.213135 731.785400,635.551086 739.357178,635.903809 
	C739.068604,637.805176 738.857910,639.193848 738.594177,640.931702 
	C735.204712,640.725525 732.090393,640.536072 728.513062,640.326416 
z"/>
<path fill="#B6D2F0" opacity="1.000000" stroke="none" 
	d="
M724.063599,692.433655 
	C718.531311,692.391418 713.427429,692.391418 708.285461,692.391418 
	C707.677124,688.883362 708.197998,687.073059 711.837341,687.366211 
	C717.093872,687.789795 722.371155,687.955505 727.682617,688.233459 
	C728.681396,691.584229 727.706665,692.931763 724.063599,692.433655 
z"/>
<path fill="#BAD6F5" opacity="1.000000" stroke="none" 
	d="
M721.735657,443.738739 
	C721.925171,443.474640 722.262085,443.356720 722.598938,443.238800 
	C722.615967,443.477661 722.632935,443.716492 722.414917,444.065155 
	C722.179932,444.174957 721.882996,443.884918 721.735657,443.738739 
z"/>
<path fill="#BAD7F6" opacity="1.000000" stroke="none" 
	d="
M691.596191,448.613281 
	C691.842957,448.382996 692.227112,448.294586 692.611206,448.206177 
	C692.595703,448.438843 692.580139,448.671539 692.294678,448.963013 
	C692.024658,449.021851 691.733459,448.755157 691.596191,448.613281 
z"/>
<path fill="#B8D5F3" opacity="1.000000" stroke="none" 
	d="
M777.278198,737.567383 
	C777.296570,737.321411 777.477417,737.273132 777.658203,737.224792 
	C777.585693,737.404907 777.513184,737.584961 777.278198,737.567383 
z"/>
<path fill="#B8D5F3" opacity="1.000000" stroke="none" 
	d="
M748.072266,758.070923 
	C747.869934,758.386902 747.515991,758.548584 747.162109,758.710327 
	C747.156250,758.459778 747.150391,758.209167 747.381042,757.783203 
	C747.617615,757.607788 747.920593,757.916687 748.072266,758.070923 
z"/>
<path fill="#B8D5F3" opacity="1.000000" stroke="none" 
	d="
M718.971313,763.996582 
	C718.864502,764.359863 718.554199,764.540955 718.243958,764.722107 
	C718.182678,764.469788 718.121399,764.217407 718.195129,763.726318 
	C718.476013,763.596497 718.621887,763.705383 718.971313,763.996582 
z"/>
<path fill="#BAD6F5" opacity="1.000000" stroke="none" 
	d="
M617.703369,748.678833 
	C623.104126,740.289734 628.304138,732.203308 633.504150,724.116821 
	C634.722839,729.593872 636.022278,734.530701 632.569214,739.816345 
	C616.111389,765.008667 600.026367,790.444641 583.327026,815.697510 
	C583.149414,809.993286 581.568665,804.455444 585.276917,798.878601 
	C596.239136,782.392700 606.790527,765.633606 617.703369,748.678833 
z"/>
<path fill="#BCD9F7" opacity="1.000000" stroke="none" 
	d="
M580.819031,713.164246 
	C571.429016,710.999390 570.849792,709.714294 572.317261,694.477722 
	C586.493164,698.690491 600.575195,702.875366 614.766907,707.092834 
	C614.505371,707.778503 614.404846,708.245605 614.169250,708.630127 
	C607.376526,719.718445 607.373352,719.721436 594.714050,716.609802 
	C590.212891,715.503479 585.718445,714.369629 580.819031,713.164246 
z"/>
<path fill="#B4D0EE" opacity="1.000000" stroke="none" 
	d="
M690.862305,657.743042 
	C692.870728,648.062317 694.808716,638.797363 696.767944,629.536804 
	C696.858459,629.109314 697.138977,628.722107 698.367554,628.527832 
	C691.462463,671.458557 684.557373,714.389343 677.652283,757.320129 
	C677.270996,757.372803 676.889648,757.425415 676.508301,757.478088 
	C675.719299,750.867859 673.281372,743.955444 674.427612,737.699829 
	C679.305420,711.080444 685.244446,684.655457 690.862305,657.743042 
z"/>
<path fill="#BAD7F6" opacity="1.000000" stroke="none" 
	d="
M649.777466,727.222900 
	C650.957642,728.180298 651.792358,729.027344 652.778015,729.625793 
	C663.839417,736.341797 670.386658,745.659302 670.325012,759.067566 
	C670.312256,761.832703 671.281799,764.602356 672.050476,768.718628 
	C667.055176,763.108459 662.880737,758.422974 658.709473,753.734680 
	C655.282104,749.882507 652.232727,745.589294 648.350220,742.270203 
	C641.640625,736.534363 640.590149,729.265198 641.205627,720.295349 
	C644.259216,722.762024 646.880615,724.879578 649.777466,727.222900 
z"/>
<path fill="#BAD6F5" opacity="1.000000" stroke="none" 
	d="
M571.735474,800.422485 
	C575.156311,801.903442 576.393921,804.018188 576.134338,807.531067 
	C575.783386,812.281799 576.047180,817.078003 576.047180,822.203674 
	C571.942383,821.125061 569.537903,819.450684 569.793518,814.827698 
	C570.028992,810.568115 569.452393,806.260986 569.186707,801.977661 
	C569.078125,800.226868 569.122986,798.830200 571.735474,800.422485 
z"/>
<path fill="#06182B" opacity="1.000000" stroke="none" 
	d="
M696.028076,288.269653 
	C698.256653,298.923492 691.149414,310.362793 681.056885,312.897949 
	C670.119873,315.645233 661.549133,308.369507 663.153442,297.089996 
	C663.741577,292.955383 666.230896,289.091187 667.852905,285.103607 
	C668.515991,285.259827 669.179077,285.416046 669.842163,285.572235 
	C669.842163,288.782501 669.776428,291.994354 669.855957,295.202637 
	C670.016724,301.686920 673.999512,305.992493 679.750183,306.004150 
	C685.407410,306.015625 689.650146,301.623444 689.858765,295.280090 
	C690.009399,290.699188 689.888123,286.109314 689.888123,281.523468 
	C690.360413,281.305603 690.832703,281.087769 691.305054,280.869934 
	C692.849426,283.207428 694.393799,285.544952 696.028076,288.269653 
z"/>
</svg>